# xmcd
#
# Track frame offsets: 
#        150
#        19278
#        36604
#        50869
#        63757
#        79302
#        92886
#        107757
#        119856
#        135420
#        170952
#
# Disc length: 2479 seconds
#
# Revision: 3
# Processed by: cddbd v1.5.1PL0 Copyright (c) Steve Scherf et al.
# Submitted via: ExactAudioCopy v0.95a5
#
DISCID=a809ad0b
DTITLE=Various Artist - Blues Brothers
DYEAR=1980
DGENRE=Blues
TTITLE0=Jake Blues - She Caught The Katy
TTITLE1=Henry Mancini - Peter Gunn Theme
TTITLE2=Jake Blues - Gimme Some Lovin'
TTITLE3=Ray Charles, Jake and Elwod Blues - Shake A Tail Feather
TTITLE4=Jake and Elwood Blues - Everybody Needs Somebody To Love
TTITLE5=James Brown With Rev James Cleveland Choir - The Old Landmark
TTITLE6=Aretha Franklin - Think
TTITLE7=Jake and Elwood Blues - Theme From Rawhide
TTITLE8=Cab Calloway - Minnie The Moocher
TTITLE9=Jake and Elwood Blues - Sweet Home Chicago
TTITLE10=Jake Blues - Jailhouse Rock
EXTD=YEAR: 1980
EXTT0=
EXTT1=
EXTT2=
EXTT3=
EXTT4=
EXTT5=
EXTT6=
EXTT7=
EXTT8=
EXTT9=
EXTT10=
PLAYORDER=
